{
	"asset":{
		"version":"2.0",
		"generator":"Created using the official Cinema 4D glTF Exporter 1.000x284978"
	},
	"scenes":[{
		"nodes":[0]
	}],
	"nodes":[{
		"name":"Pufa XP MAŁA SATIN",
		"translation":[0.0,
		27.886394500732423,
		0.0],
		"rotation":[0.0,
		0.0,
		0.0,
		-1.0],
		"scale":[1.0,
		1.0,
		1.0],
		"children":[1]
	},
	{
		"name":"Subdivision Surface",
		"translation":[0.0,
		16.75600242614746,
		0.0],
		"rotation":[0.0,
		0.0,
		0.0,
		-1.0],
		"scale":[1.0,
		1.0,
		1.0],
		"children":[2]
	},
	{
		"name":"Null",
		"translation":[-10.90717601776123,
		-33.571197509765628,
		0.0],
		"rotation":[0.0,
		0.0,
		0.0,
		-1.0],
		"scale":[1.0,
		1.0,
		1.0],
		"children":[3,
		4]
	},
	{
		"name":"legs",
		"translation":[-10.90717601776123,
		-11.071198463439942,
		0.0],
		"rotation":[0.0,
		0.0,
		0.0,
		-1.0],
		"scale":[1.0,
		1.0,
		1.0],
		"mesh":0
	},
	{
		"name":"Cloner.1",
		"translation":[10.90717601776123,
		11.071198463439942,
		0.0],
		"rotation":[0.0,
		0.0,
		0.0,
		-1.0],
		"scale":[1.0,
		1.0,
		1.0],
		"mesh":1
	}],
	"meshes":[{
		"name":"legs",
		"primitives":[{
			"attributes":{
				"POSITION":1
			},
			"indices":0,
			"material":0
		}]
	},
	{
		"name":"Cloner.1",
		"primitives":[{
			"attributes":{
				"POSITION":3
			},
			"indices":2
		}]
	}],
	"accessors":[{
		"bufferView":0,
		"type":"SCALAR",
		"componentType":5123,
		"count":172800,
		"byteOffset":0,
		"min":[0],
		"max":[28791]
	},
	{
		"bufferView":1,
		"type":"VEC3",
		"componentType":5126,
		"count":28792,
		"byteOffset":0,
		"min":[8.924396865950257e-8,
		-0.3772224187850952,
		-22.588653564453126],
		"max":[43.62870788574219,
		35.42646408081055,
		22.588653564453126]
	},
	{
		"bufferView":2,
		"type":"SCALAR",
		"componentType":5123,
		"count":52128,
		"byteOffset":0,
		"min":[0],
		"max":[8752]
	},
	{
		"bufferView":3,
		"type":"VEC3",
		"componentType":5126,
		"count":8753,
		"byteOffset":0,
		"min":[-23.113723754882814,
		13.031274795532227,
		-23.537416458129884],
		"max":[23.113723754882814,
		23.43126678466797,
		23.537416458129884]
	}],
	"bufferViews":[{
		"buffer":0,
		"byteOffset":0,
		"byteLength":345600,
		"target":34963
	},
	{
		"buffer":0,
		"byteOffset":345600,
		"byteLength":345504,
		"target":34962
	},
	{
		"buffer":1,
		"byteOffset":0,
		"byteLength":104256,
		"target":34963
	},
	{
		"buffer":1,
		"byteOffset":104256,
		"byteLength":105036,
		"target":34962
	}],
	"buffers":[{
		"uri":"data:application/octet-stream;base64,",
		"byteLength":691104
	},
	{
		"uri":"data:application/octet-stream;base64,",
		"byteLength":209292
	}],
	"materials":[{
		"name":"",
		"pbrMetallicRoughness":{
			"baseColorFactor":[1.0,
			1.0,
			1.0,
			1.0],
			"metallicFactor":1.0,
			"roughnessFactor":1.0
		},
		"emissiveFactor":[0.0,
		0.0,
		0.0],
		"alphaMode":"OPAQUE",
		"doubleSided":false
	}]
}